<svg width="64" height="64" viewBox="0 0 64 64" fill="none" xmlns="http://www.w3.org/2000/svg">
<g clip-path="url(#clip0_2_8190)">
<path fill-rule="evenodd" clip-rule="evenodd" d="M56.624 56.52C50.006 61.4 40.416 64 32.16 64C20.56 64 10.156 59.72 2.27 52.594C1.67 52.034 2.206 51.27 2.95 51.706C11.46 56.66 22 59.64 32.852 59.64C40.6891 59.6039 48.4417 58.0189 55.664 54.976C56.784 54.5 57.724 55.71 56.624 56.522M59.376 53.372C58.536 52.292 53.784 52.862 51.656 53.112C51.006 53.192 50.908 52.626 51.492 52.22C55.292 49.56 61.48 50.326 62.204 51.22C62.928 52.114 62.016 58.34 58.464 61.308C57.918 61.764 57.398 61.522 57.664 60.916C58.464 58.924 60.252 54.456 59.404 53.372" fill="#FF9900"/>
<path fill-rule="evenodd" clip-rule="evenodd" d="M36.86 27.728C36.86 31.112 36.946 33.934 35.236 36.938C33.836 39.378 31.636 40.884 29.226 40.884C25.892 40.884 23.938 38.344 23.938 34.594C23.938 27.194 30.57 25.848 36.862 25.848V27.728M45.622 48.896C45.048 49.41 44.218 49.446 43.57 49.104C40.69 46.71 40.162 45.598 38.586 43.314C33.822 48.174 30.438 49.628 24.27 49.628C16.954 49.628 11.274 45.12 11.274 36.094C11.274 29.046 15.084 24.246 20.534 21.9C25.248 19.824 31.834 19.46 36.864 18.9V17.8C36.864 15.736 37.024 13.292 35.804 11.51C34.754 9.91 32.724 9.25 30.93 9.25C27.62 9.25 24.676 10.95 23.956 14.466C23.81 15.266 23.236 16.018 22.442 16.054L14 15.11C13.292 14.95 12.5 14.378 12.706 13.31C14.656 3.08 23.89 0 32.148 0C36.374 0 41.896 1.124 45.228 4.324C49.454 8.27 49.052 13.534 49.052 19.264V32.8C49.052 36.868 50.738 38.65 52.326 40.85C52.876 41.65 52.998 42.57 52.29 43.158C50.0484 45.0534 47.8296 46.9756 45.634 48.924L45.622 48.9" fill="#221F1F"/>
</g>
<defs>
<clipPath id="clip0_2_8190">
<rect width="64" height="64" fill="white"/>
</clipPath>
</defs>
</svg>
